<svg xmlns="http://www.w3.org/2000/svg" xmlns:xlink="http://www.w3.org/1999/xlink" width="100" zoomAndPan="magnify" viewBox="0 0 75 30.000001" height="40" preserveAspectRatio="xMidYMid meet" version="1.0"><defs><g/></defs><g fill="#000000" fill-opacity="1"><g transform="translate(3.805736, 20.419057)"><g><path d="M 2.707031 -12.003906 C 3.933594 -12.003906 5.207031 -12.617188 5.207031 -13.84375 C 5.207031 -15.046875 3.933594 -15.683594 2.707031 -15.683594 C 1.453125 -15.683594 0.203125 -15.046875 0.203125 -13.84375 C 0.203125 -12.617188 1.453125 -12.003906 2.707031 -12.003906 Z M 0.660156 5.683594 C 3.183594 5.683594 4.457031 4.296875 4.457031 1.570312 L 4.457031 -5.933594 C 4.457031 -8.273438 3.25 -9.796875 1.046875 -10.253906 L 1.046875 1.570312 C 1.046875 2.476562 0.636719 2.957031 -0.0898438 2.957031 C -0.183594 2.957031 -0.316406 2.957031 -0.589844 2.910156 C -0.910156 2.863281 -1.089844 3.023438 -1.089844 3.320312 L -1.089844 5.023438 C -1.089844 5.296875 -0.953125 5.457031 -0.703125 5.523438 C -0.296875 5.636719 0.136719 5.683594 0.660156 5.683594 Z M 0.660156 5.683594 "/></g></g></g><g fill="#000000" fill-opacity="1"><g transform="translate(9.214708, 20.419057)"><g><path d="M 9.09375 -9.070312 C 8.230469 -9.910156 7.046875 -10.386719 5.660156 -10.386719 C 2.707031 -10.386719 0.660156 -8.183594 0.660156 -5.023438 C 0.660156 -1.839844 2.707031 0.363281 5.660156 0.363281 C 7.320312 0.363281 8.695312 -0.328125 9.582031 -1.511719 C 10.128906 -0.375 11.117188 0.226562 12.503906 0.226562 L 12.503906 -12.730469 C 12.503906 -15.070312 11.296875 -16.59375 9.09375 -17.050781 Z M 6.707031 -2.363281 C 5.320312 -2.363281 4.320312 -3.457031 4.320312 -5 C 4.320312 -6.546875 5.320312 -7.636719 6.707031 -7.636719 C 8.09375 -7.636719 9.09375 -6.546875 9.09375 -5 C 9.09375 -3.457031 8.09375 -2.363281 6.707031 -2.363281 Z M 6.707031 -2.363281 "/></g></g></g><g fill="#000000" fill-opacity="1"><g transform="translate(22.828054, 20.419057)"><g><path d="M 3.023438 0.226562 C 4.25 0.226562 5.523438 -0.386719 5.523438 -1.613281 C 5.523438 -2.820312 4.25 -3.457031 3.023438 -3.457031 C 1.773438 -3.457031 0.523438 -2.820312 0.523438 -1.613281 C 0.523438 -0.386719 1.773438 0.226562 3.023438 0.226562 Z M 3.023438 0.226562 "/></g></g></g><g fill="#000000" fill-opacity="1"><g transform="translate(28.896106, 20.419057)"><g><path d="M 5.980469 0.363281 C 9.070312 0.363281 11.09375 -1.386719 11.410156 -3.660156 C 11.457031 -3.886719 11.273438 -4.023438 10.980469 -4.023438 L 8.480469 -4.023438 C 8.207031 -4.023438 8.070312 -3.886719 8 -3.613281 C 7.796875 -2.75 7.25 -2.273438 6.230469 -2.273438 C 4.683594 -2.273438 4.046875 -3.546875 4.046875 -5.023438 C 4.046875 -6.34375 4.683594 -7.75 6.230469 -7.75 C 7.25 -7.75 7.796875 -7.273438 8 -6.410156 C 8.070312 -6.136719 8.207031 -6 8.480469 -6 L 10.980469 -6 C 11.273438 -6 11.457031 -6.183594 11.410156 -6.480469 C 11.023438 -8.707031 9.023438 -10.386719 5.980469 -10.386719 C 2.636719 -10.386719 0.636719 -8 0.636719 -5.023438 C 0.636719 -2.023438 2.636719 0.363281 5.980469 0.363281 Z M 5.980469 0.363281 "/></g></g></g><g fill="#000000" fill-opacity="1"><g transform="translate(40.964034, 20.419057)"><g><path d="M 6.363281 0.363281 C 9.933594 0.363281 12.070312 -1.839844 12.070312 -5 C 12.070312 -8.136719 9.910156 -10.386719 6.363281 -10.386719 C 2.796875 -10.386719 0.636719 -8.136719 0.636719 -5 C 0.636719 -1.863281 2.773438 0.363281 6.363281 0.363281 Z M 6.363281 -2.296875 C 4.84375 -2.296875 4.023438 -3.476562 4.023438 -4.976562 C 4.023438 -6.5 4.863281 -7.730469 6.363281 -7.730469 C 7.867188 -7.730469 8.683594 -6.523438 8.683594 -4.976562 C 8.683594 -3.457031 7.867188 -2.296875 6.363281 -2.296875 Z M 6.363281 -2.296875 "/></g></g></g><g fill="#000000" fill-opacity="1"><g transform="translate(53.691041, 20.419057)"><g><path d="M 14.027344 -10.386719 C 12.515625 -10.386719 11.410156 -9.96875 10.457031 -8.808594 C 9.808594 -10.070312 8.582031 -10.386719 7.480469 -10.386719 C 6.148438 -10.386719 4.773438 -9.71875 3.785156 -8.570312 C 3.214844 -9.433594 2.308594 -10.003906 1.089844 -10.253906 L 1.089844 -0.453125 C 1.089844 -0.160156 1.25 0 1.546875 0 L 4.046875 0 C 4.34375 0 4.5 -0.160156 4.5 -0.453125 L 4.5 -5.773438 C 4.625 -6.945312 5.21875 -7.660156 6.25 -7.660156 C 7.386719 -7.660156 7.773438 -6.886719 7.773438 -5.457031 L 7.773438 -0.453125 C 7.773438 -0.160156 7.933594 0 8.230469 0 L 10.730469 0 C 11.023438 0 11.183594 -0.160156 11.183594 -0.453125 L 11.183594 -5.457031 C 11.183594 -6.886719 11.707031 -7.660156 12.933594 -7.660156 C 14.164062 -7.660156 14.480469 -6.886719 14.480469 -5.457031 L 14.480469 -0.453125 C 14.480469 -0.160156 14.640625 0 14.933594 0 L 17.4375 0 C 17.730469 0 17.890625 -0.160156 17.890625 -0.453125 L 17.890625 -6.59375 C 17.890625 -8.730469 16.640625 -10.386719 14.027344 -10.386719 Z M 14.027344 -10.386719 "/></g></g></g><g fill="#000000" fill-opacity="1"><g transform="translate(37.499998, 14.939519)"><g/></g></g></svg>