<svg xmlns="http://www.w3.org/2000/svg" xmlns:xlink="http://www.w3.org/1999/xlink" width="200" zoomAndPan="magnify" viewBox="0 0 150 30.000001" height="40" preserveAspectRatio="xMidYMid meet" version="1.0"><defs><g/></defs><g fill="#000000" fill-opacity="1"><g transform="translate(4.258518, 24.547055)"><g><path d="M 9.203125 0.316406 C 12.953125 0.316406 17.460938 -1.292969 17.460938 -6.554688 C 17.460938 -11.160156 14.058594 -12.199219 10.9375 -12.890625 C 8.480469 -13.429688 6.242188 -13.679688 6.242188 -15.730469 C 6.242188 -17.179688 7.34375 -17.902344 9.015625 -17.902344 C 10.589844 -17.902344 11.820312 -17.273438 12.167969 -15.507812 C 12.230469 -15.097656 12.449219 -14.910156 12.828125 -14.910156 L 16.234375 -14.910156 C 16.644531 -14.910156 16.863281 -15.128906 16.832031 -15.570312 C 16.484375 -19.953125 12.703125 -21.75 9.109375 -21.75 C 5.359375 -21.75 1.511719 -19.730469 1.511719 -15.066406 C 1.511719 -11.160156 4.222656 -10.023438 6.777344 -9.332031 C 9.707031 -8.542969 12.734375 -8.417969 12.734375 -5.863281 C 12.734375 -4.097656 11.253906 -3.53125 9.675781 -3.53125 C 7.628906 -3.53125 6.082031 -4.507812 5.800781 -6.460938 C 5.769531 -6.839844 5.546875 -7.0625 5.167969 -7.0625 L 1.480469 -7.0625 C 1.070312 -7.0625 0.851562 -6.839844 0.851562 -6.429688 C 1.101562 -1.640625 5.074219 0.316406 9.203125 0.316406 Z M 9.203125 0.316406 "/></g></g></g><g fill="#000000" fill-opacity="1"><g transform="translate(22.693541, 24.547055)"><g><path d="M 13.363281 -17.148438 C 13.773438 -17.148438 13.996094 -17.367188 13.996094 -17.777344 L 13.996094 -20.804688 C 13.996094 -21.214844 13.773438 -21.433594 13.363281 -21.433594 L 2.207031 -21.433594 C 1.796875 -21.433594 1.574219 -21.214844 1.574219 -20.804688 L 1.574219 -17.777344 C 1.574219 -17.367188 1.796875 -17.148438 2.207031 -17.148438 L 5.027344 -17.148438 C 2.964844 -16.34375 1.574219 -14.167969 1.574219 -10.875 L 1.574219 -0.628906 C 1.574219 -0.21875 1.796875 0 2.207031 0 L 13.363281 0 C 13.773438 0 13.996094 -0.21875 13.996094 -0.628906 L 13.996094 -3.65625 C 13.996094 -4.066406 13.773438 -4.285156 13.363281 -4.285156 L 6.304688 -4.285156 L 6.304688 -11.960938 C 7.0625 -10.148438 9.015625 -8.921875 11.976562 -8.921875 L 13.050781 -8.921875 C 13.460938 -8.921875 13.679688 -9.140625 13.679688 -9.550781 L 13.679688 -12.578125 C 13.679688 -12.988281 13.460938 -13.207031 13.050781 -13.207031 L 6.304688 -13.207031 L 6.304688 -17.148438 Z M 13.363281 -17.148438 "/></g></g></g><g fill="#000000" fill-opacity="1"><g transform="translate(37.97728, 24.547055)"><g><path d="M 11.851562 0.316406 C 18.472656 0.316406 22.882812 -3.972656 22.882812 -10.75 C 22.882812 -17.460938 18.597656 -21.75 11.882812 -21.75 C 5.265625 -21.75 0.851562 -17.558594 0.851562 -10.78125 C 0.851562 -4.097656 5.136719 0.316406 11.851562 0.316406 Z M 11.851562 -3.972656 C 8.382812 -3.972656 5.578125 -6.492188 5.578125 -10.78125 C 5.578125 -15.035156 8.382812 -17.460938 11.851562 -17.460938 C 15.382812 -17.460938 18.15625 -15.003906 18.15625 -10.78125 C 18.15625 -6.492188 15.382812 -3.972656 11.851562 -3.972656 Z M 11.851562 -3.972656 "/></g></g></g><g fill="#000000" fill-opacity="1"><g transform="translate(61.706477, 24.547055)"><g/></g></g><g fill="#000000" fill-opacity="1"><g transform="translate(69.899821, 24.547055)"><g><path d="M 0.757812 -21.433594 C 0.347656 -21.433594 0.125 -21.214844 0.125 -20.804688 L 0.125 -17.777344 C 0.125 -17.367188 0.347656 -17.148438 0.757812 -17.148438 L 9.078125 -17.148438 C 7.1875 -16.34375 5.925781 -14.074219 5.925781 -11.191406 L 5.925781 -0.628906 C 5.925781 -0.21875 6.148438 0 6.554688 0 L 10.023438 0 C 10.433594 0 10.652344 -0.21875 10.652344 -0.628906 L 10.652344 -17.148438 L 15.824219 -17.148438 C 16.234375 -17.148438 16.453125 -17.367188 16.453125 -17.777344 L 16.453125 -20.804688 C 16.453125 -21.214844 16.234375 -21.433594 15.824219 -21.433594 Z M 0.757812 -21.433594 "/></g></g></g><g fill="#000000" fill-opacity="1"><g transform="translate(86.507094, 24.547055)"><g><path d="M 8.824219 0.503906 C 13.773438 0.503906 16.738281 -2.554688 16.738281 -6.933594 C 16.738281 -11.285156 13.742188 -14.40625 8.824219 -14.40625 C 3.878906 -14.40625 0.882812 -11.285156 0.882812 -6.933594 C 0.882812 -2.585938 3.84375 0.503906 8.824219 0.503906 Z M 8.824219 -3.183594 C 6.714844 -3.183594 5.578125 -4.824219 5.578125 -6.902344 C 5.578125 -9.015625 6.746094 -10.71875 8.824219 -10.71875 C 10.90625 -10.71875 12.039062 -9.046875 12.039062 -6.902344 C 12.039062 -4.792969 10.90625 -3.183594 8.824219 -3.183594 Z M 8.824219 -3.183594 "/></g></g></g><g fill="#000000" fill-opacity="1"><g transform="translate(104.15431, 24.547055)"><g><path d="M 8.824219 0.503906 C 13.773438 0.503906 16.738281 -2.554688 16.738281 -6.933594 C 16.738281 -11.285156 13.742188 -14.40625 8.824219 -14.40625 C 3.878906 -14.40625 0.882812 -11.285156 0.882812 -6.933594 C 0.882812 -2.585938 3.84375 0.503906 8.824219 0.503906 Z M 8.824219 -3.183594 C 6.714844 -3.183594 5.578125 -4.824219 5.578125 -6.902344 C 5.578125 -9.015625 6.746094 -10.71875 8.824219 -10.71875 C 10.90625 -10.71875 12.039062 -9.046875 12.039062 -6.902344 C 12.039062 -4.792969 10.90625 -3.183594 8.824219 -3.183594 Z M 8.824219 -3.183594 "/></g></g></g><g fill="#000000" fill-opacity="1"><g transform="translate(121.801525, 24.547055)"><g><path d="M 5.609375 0 C 6.019531 0 6.242188 -0.21875 6.242188 -0.628906 L 6.242188 -17.652344 C 6.242188 -20.898438 4.570312 -23.011719 1.511719 -23.640625 L 1.511719 -0.628906 C 1.511719 -0.21875 1.734375 0 2.144531 0 Z M 5.609375 0 "/></g></g></g><g fill="#000000" fill-opacity="1"><g transform="translate(129.585208, 24.547055)"><g><path d="M 8.382812 0.503906 C 12.828125 0.503906 15.414062 -1.355469 15.414062 -4.570312 C 15.414062 -10.308594 6.113281 -8.132812 6.113281 -10.558594 C 6.113281 -11.03125 6.585938 -11.472656 7.691406 -11.472656 C 9.046875 -11.472656 9.707031 -11.03125 10.085938 -10.210938 C 10.246094 -9.867188 10.464844 -9.675781 10.8125 -9.675781 L 14.183594 -9.675781 C 14.625 -9.675781 14.847656 -9.929688 14.75 -10.371094 C 14.058594 -13.082031 11.632812 -14.40625 7.941406 -14.40625 C 3.65625 -14.40625 1.355469 -12.609375 1.355469 -9.929688 C 1.355469 -4.316406 10.652344 -6.714844 10.652344 -4.128906 C 10.652344 -3.339844 9.960938 -2.773438 8.480469 -2.773438 C 7.628906 -2.773438 5.894531 -3.089844 5.515625 -4.570312 C 5.421875 -4.949219 5.234375 -5.167969 4.855469 -5.167969 L 1.417969 -5.167969 C 1.007812 -5.167969 0.757812 -4.917969 0.820312 -4.507812 C 1.417969 -1.007812 4.382812 0.503906 8.382812 0.503906 Z M 8.382812 0.503906 "/></g></g></g></svg>